<svg width="57" height="57" viewBox="0 0 57 57" fill="none" xmlns="http://www.w3.org/2000/svg">
<path d="M28.5 54.0312C14.4163 54.0312 2.96875 42.5837 2.96875 28.5C2.96875 14.4163 14.4163 2.96875 28.5 2.96875C42.5837 2.96875 54.0312 14.4163 54.0312 28.5C54.0312 42.5837 42.5837 54.0312 28.5 54.0312ZM28.5 6.53125C16.3875 6.53125 6.53125 16.3875 6.53125 28.5C6.53125 40.6125 16.3875 50.4688 28.5 50.4688C40.6125 50.4688 50.4688 40.6125 50.4688 28.5C50.4688 16.3875 40.6125 6.53125 28.5 6.53125Z" fill="#EDE7E0"/>
<path d="M21.7787 37.003C21.3275 37.003 20.8762 36.8367 20.52 36.4805C19.8312 35.7917 19.8312 34.6517 20.52 33.963L33.9625 20.5205C34.6512 19.8317 35.7912 19.8317 36.48 20.5205C37.1687 21.2092 37.1687 22.3492 36.48 23.038L23.0375 36.4805C22.705 36.8367 22.23 37.003 21.7787 37.003Z" fill="#EDE7E0"/>
<path d="M35.2212 37.003C34.77 37.003 34.3187 36.8367 33.9625 36.4805L20.52 23.038C19.8312 22.3492 19.8312 21.2092 20.52 20.5205C21.2087 19.8317 22.3487 19.8317 23.0375 20.5205L36.48 33.963C37.1687 34.6517 37.1687 35.7917 36.48 36.4805C36.1237 36.8367 35.6725 37.003 35.2212 37.003Z" fill="#EDE7E0"/>
</svg>
