<svg width="58" height="57" viewBox="0 0 58 57" fill="none" xmlns="http://www.w3.org/2000/svg">
<path d="M15.6521 54.0312C14.6783 54.0312 13.8708 53.2238 13.8708 52.25V4.75C13.8708 3.77625 14.6783 2.96875 15.6521 2.96875C16.6259 2.96875 17.4334 3.77625 17.4334 4.75V52.25C17.4334 53.2238 16.6259 54.0312 15.6521 54.0312Z" fill="#EDE7E0"/>
<path d="M16.8395 42.1566C16.1745 42.1566 15.557 41.8004 15.2482 41.1591C14.8207 40.2804 15.177 39.2116 16.0557 38.7841L35.7682 29.0466C38.6657 27.5504 40.3045 25.7454 40.2332 24.0591C40.162 22.4204 38.4045 20.7341 35.3882 19.4516L16.1507 11.1391C15.2245 10.7354 14.8207 9.69036 15.2007 8.78786C15.5807 7.88536 16.6495 7.45786 17.552 7.86161L36.7895 16.1741C42.727 18.6916 43.7245 22.1116 43.7957 23.9166C43.9145 27.0754 41.6345 30.0204 37.3832 32.2054L17.647 41.9666C17.3857 42.1091 17.1007 42.1566 16.8395 42.1566Z" fill="#EDE7E0"/>
</svg>
