<svg width="58" height="57" viewBox="0 0 58 57" fill="none" xmlns="http://www.w3.org/2000/svg">
<path d="M31.6602 38.594H27.1953C24.0365 38.594 21.4478 35.934 21.4478 32.6565C21.4478 31.6828 22.2553 30.8753 23.229 30.8753C24.2028 30.8753 25.0103 31.6828 25.0103 32.6565C25.0103 33.9628 25.984 35.0315 27.1953 35.0315H31.6602C32.5865 35.0315 33.3228 34.2003 33.3228 33.1791C33.3228 31.8966 32.9665 31.7065 32.159 31.4215L25.0103 28.9278C23.4903 28.4053 21.4478 27.2891 21.4478 23.7978C21.4478 20.8291 23.799 18.3828 26.6728 18.3828H31.1377C34.2965 18.3828 36.8853 21.0428 36.8853 24.3203C36.8853 25.2941 36.0778 26.1016 35.104 26.1016C34.1303 26.1016 33.3228 25.2941 33.3228 24.3203C33.3228 23.0141 32.349 21.9453 31.1377 21.9453H26.6728C25.7465 21.9453 25.0103 22.7766 25.0103 23.7978C25.0103 25.0803 25.3665 25.2703 26.174 25.5553L33.3228 28.049C34.8428 28.5715 36.8853 29.6878 36.8853 33.1791C36.8853 36.1716 34.534 38.594 31.6602 38.594Z" fill="#EDE7E0"/>
<path d="M29.1665 40.9688C28.1928 40.9688 27.3853 40.1612 27.3853 39.1875V17.8125C27.3853 16.8388 28.1928 16.0312 29.1665 16.0312C30.1403 16.0312 30.9478 16.8388 30.9478 17.8125V39.1875C30.9478 40.1612 30.1403 40.9688 29.1665 40.9688Z" fill="#EDE7E0"/>
<path d="M29.1665 54.0312C15.0828 54.0312 3.63525 42.5837 3.63525 28.5C3.63525 14.4163 15.0828 2.96875 29.1665 2.96875C30.1403 2.96875 30.9478 3.77625 30.9478 4.75C30.9478 5.72375 30.1403 6.53125 29.1665 6.53125C17.054 6.53125 7.19775 16.3875 7.19775 28.5C7.19775 40.6125 17.054 50.4688 29.1665 50.4688C41.279 50.4688 51.1353 40.6125 51.1353 28.5C51.1353 27.5263 51.9428 26.7188 52.9165 26.7188C53.8903 26.7188 54.6978 27.5263 54.6978 28.5C54.6978 42.5837 43.2503 54.0312 29.1665 54.0312Z" fill="#EDE7E0"/>
<path d="M50.5415 18.4062H41.0415C40.0678 18.4062 39.2603 17.5988 39.2603 16.625V7.125C39.2603 6.15125 40.0678 5.34375 41.0415 5.34375C42.0153 5.34375 42.8228 6.15125 42.8228 7.125V14.8438H50.5415C51.5153 14.8438 52.3228 15.6512 52.3228 16.625C52.3228 17.5988 51.5153 18.4062 50.5415 18.4062Z" fill="#EDE7E0"/>
<path d="M41.0414 18.4062C40.5902 18.4062 40.1389 18.2399 39.7827 17.8837C39.0939 17.1949 39.0939 16.0549 39.7827 15.3662L51.6577 3.49117C52.3464 2.80242 53.4864 2.80242 54.1752 3.49117C54.8639 4.17992 54.8639 5.31992 54.1752 6.00867L42.3002 17.8837C41.9439 18.2399 41.4927 18.4062 41.0414 18.4062Z" fill="#EDE7E0"/>
</svg>
